<svg xmlns:xlink="http://www.w3.org/1999/xlink" fill="currentColor" xmlns="http://www.w3.org/2000/svg" viewBox="0 0 16 16" aria-label="Betterment on Twitter" role="img" width="24"  height="24" > <title>Betterment on Twitter</title> <path d="M16 2.7c-.6.3-1.2.5-1.9.5.7-.4 1.2-1 1.5-1.8a6 6 0 01-2.1.8 3.3 3.3 0 00-5.6 3A9.3 9.3 0 011 1.8a3.3 3.3 0 001 4.4c-.5 0-1-.2-1.5-.4 0 1.6 1.2 3 2.7 3.2a3.3 3.3 0 01-1.5 0 3.3 3.3 0 003 2.4A6.6 6.6 0 010 12.7a9.3 9.3 0 0014.4-8.3c.6-.4 1.2-1 1.6-1.7" fill="#FFFFFF"></path> </svg>