<svg xmlns:xlink="http://www.w3.org/1999/xlink" xmlns="http://www.w3.org/2000/svg" viewBox="0 0 48 48" aria-hidden="true" width="48"  height="48" ><path fill-rule="evenodd" d="M12.3 12.3A16.5 16.5 0 0010.1 33L33 10.1C26.5 6 18 6.7 12.3 12.3zm23.2-4.7A20 20 0 009.9 38.1L38 10c-.8-.9-1.7-1.6-2.6-2.3z" clip-rule="evenodd" fill="#212121"></path><path fill-rule="evenodd" d="M39.6 42l-14-14 2.5-2.4 14 14-2.5 2.5z" clip-rule="evenodd" fill="#212121"></path><path fill-rule="evenodd" d="M10.1 33C7 28 6.7 21.7 9.2 16.6a21 21 0 005.9 11.2l-5 5zm15.4-15.4l-8 7.9a16 16 0 01-5-13 16 16 0 0113 5zm2.4-2.5l5-5a16.7 16.7 0 00-16.2-.9 21 21 0 0111.2 6zm7.6-7.5A20 20 0 009.9 38.1L38 10c-.8-.9-1.7-1.6-2.6-2.3z" clip-rule="evenodd" fill="#212121"></path></svg>