<svg xmlns:xlink="http://www.w3.org/1999/xlink" xmlns="http://www.w3.org/2000/svg" viewBox="0 0 48 48" aria-hidden="true" width="48"  height="48" ><path fill-rule="evenodd" d="M36 7.5H12c-.3 0-.5.2-.5.5v32c0 .3.2.5.5.5h24c.3 0 .5-.2.5-.5V8c0-.3-.2-.5-.5-.5zM12 4a4 4 0 00-4 4v32a4 4 0 004 4h24a4 4 0 004-4V8a4 4 0 00-4-4H12z" clip-rule="evenodd" fill="#FFFFFF"></path><path fill-rule="evenodd" d="M37 17.8H10.3v-3.6H37v3.6z" clip-rule="evenodd" fill="#FFFFFF"></path><path d="M22 20.7h4v4h-4v-4z" fill="#FFFFFF"></path><path d="M16 20.7h4v4h-4v-4z" fill="#FFFFFF"></path><path d="M28 20.7h4v4h-4v-4z" fill="#FFFFFF"></path><path d="M22 27.3h4v4h-4v-4z" fill="#FFFFFF"></path><path d="M16 27.3h4v4h-4v-4z" fill="#FFFFFF"></path><path d="M28 27.3h4v4h-4v-4z" fill="#FFFFFF"></path><path d="M28 34h4v4h-4v-4z" fill="#FFFFFF"></path><path d="M16 34h6.7v4H16v-4z" fill="#FFFFFF"></path><path d="M22.7 34H26v4h-3.3v-4z" fill="#FFFFFF"></path></svg>