<svg xmlns:xlink="http://www.w3.org/1999/xlink" xmlns="http://www.w3.org/2000/svg" viewBox="0 0 48 48" aria-hidden="true" width="48"  height="48" ><path fill-rule="evenodd" d="M24 40.5a16.5 16.5 0 100-33 16.5 16.5 0 000 33zm0 3.5a20 20 0 100-40 20 20 0 000 40z" clip-rule="evenodd" fill="#FFFFFF"></path><path fill-rule="evenodd" d="M24 32.5a8.5 8.5 0 100-17 8.5 8.5 0 000 17zm0 3.5a12 12 0 100-24 12 12 0 000 24z" clip-rule="evenodd" fill="#FFFFFF"></path><path fill-rule="evenodd" d="M22.3 14V6h3.4v8h-3.4z" clip-rule="evenodd" fill="#FFFFFF"></path><path fill-rule="evenodd" d="M22.3 42v-8h3.4v8h-3.4z" clip-rule="evenodd" fill="#FFFFFF"></path><path fill-rule="evenodd" d="M34 22.3h8v3.4h-8v-3.4z" clip-rule="evenodd" fill="#FFFFFF"></path></svg>