<svg xmlns:xlink="http://www.w3.org/1999/xlink" xmlns="http://www.w3.org/2000/svg" viewBox="0 0 48 48" aria-hidden="true" width="48"  height="48" ><path fill-rule="evenodd" d="M12.3 17c0-4.8 3.9-8.8 8.7-8.8h6c4.8 0 8.8 4 8.8 8.8h-3.5c0-2.9-2.4-5.3-5.3-5.3h-6a5.2 5.2 0 100 10.6h6a8.7 8.7 0 110 17.4h-6a8.8 8.8 0 01-8.8-8.7h3.6c0 2.9 2.3 5.3 5.2 5.3h6a5.2 5.2 0 100-10.5h-6c-4.8 0-8.8-4-8.8-8.8z" clip-rule="evenodd" fill="#FFFFFF"></path><path fill-rule="evenodd" d="M22.3 44V4h3.4v40h-3.4z" clip-rule="evenodd" fill="#FFFFFF"></path></svg>