<svg xmlns:xlink="http://www.w3.org/1999/xlink" xmlns="http://www.w3.org/2000/svg" viewBox="0 0 48 48" aria-hidden="true" width="48"  height="48" ><path fill-rule="evenodd" d="M36 7.5H12c-.3 0-.5.2-.5.5v32c0 .3.2.5.5.5h24c.3 0 .5-.2.5-.5V8c0-.3-.2-.5-.5-.5zM12 4a4 4 0 00-4 4v32a4 4 0 004 4h24a4 4 0 004-4V8a4 4 0 00-4-4H12z" clip-rule="evenodd" fill="#212121"></path><path d="M16 24V6h8v18l-4-4-4 4z" fill="#212121"></path><path fill-rule="evenodd" d="M24 24V6h-8v18l4-4 4 4zm-6-4.8l2-2 2 2V8h-4v11.2z" clip-rule="evenodd" fill="#212121"></path></svg>