<svg xmlns:xlink="http://www.w3.org/1999/xlink" xmlns="http://www.w3.org/2000/svg" viewBox="0 0 48 48" aria-hidden="true" width="48"  height="48" ><path fill-rule="evenodd" d="M24 19l-4.6-4.8a6.9 6.9 0 10-10 9.6L24 38.9l14.6-15.1a6.9 6.9 0 10-10-9.6L24 19.1zm-1 21zm1-26l2.1-2.2.3-.3a10.4 10.4 0 0114.7 14.7L25.4 42.5a2 2 0 01-2.8 0L6.9 26.2a10.4 10.4 0 0115-14.4L24 14z" clip-rule="evenodd" fill="#FFFFFF"></path><path d="M31.7 25.8L24 34l-7.7-8.2a3.6 3.6 0 015.4-5l2.3 2.5 2.3-2.5a3.6 3.6 0 015.4 5z" fill="#FFFFFF"></path></svg>